<svg width="449.91px" height="95.5px" viewBox="0 0 449.91 95.5" version="1.1" xmlns="http://www.w3.org/2000/svg" xmlns:xlink="http://www.w3.org/1999/xlink">
	<g id="Page-1" stroke="none" stroke-width="1" fill="none" fill-rule="evenodd">
		<g id="logo" fill-rule="nonzero">
			<g id="Group">
				<path d="M67.53,95.5 L95.5,67.53 L95.5,27.97 L67.53,0 L27.97,0 L0,27.97 L0,67.53 L27.97,95.5 L67.53,95.5 Z M7.85,31.22 L31.22,7.85 L64.27,7.85 L87.64,31.22 L87.64,64.27 L64.27,87.64 L31.22,87.64 L7.85,64.27 L7.85,31.22 Z" id="Shape" fill="#4286F5"></path>
				<path d="M47.59,49.28 C47.59,49.14 47.59,49 47.75,48.92 C47.87,49.12 47.7,49.19 47.59,49.28 Z" id="Path" fill="#3CC7D7"></path>
				<polygon id="Path" fill="#4286F5" points="68.27 36.01 27.32 36.01 47.79 56.48"></polygon>
				<polygon id="Path" fill="#64A3FF" points="27.32 36.01 68.27 36.01 60.12 24.4 35.47 24.4"></polygon>
				<polygon id="Path" fill="#3783DD" points="27.32 36.01 35.47 24.4 40.54 36.01"></polygon>
				<polygon id="Path" fill="#4286F5" points="40.54 36.01 47.84 24.4 55.05 36.01"></polygon>
				<polygon id="Path" fill="#2B75E0" points="68.27 36.01 60.12 24.4 55.05 36.01"></polygon>
				<polygon id="Path" fill="#4D99F4" points="40.54 36.01 47.79 56.48 55.05 36.01"></polygon>
				<polygon id="Path" fill="#64A3FF" points="27.32 36.01 47.79 56.48 40.54 36.01"></polygon>
				<polygon id="Path" fill="#64A3FF" points="36.78 71.06 47.79 60.05 25.8 38.14 16.52 51.13 36.7 71.09 36.81 71.09"></polygon>
				<polygon id="Path" fill="#2B75E0" points="58.78 71.09 58.79 71.09 78.97 50.91 69.79 38.05 47.79 60.05"></polygon>
				<polygon id="Path" fill="#3783DD" points="36.81 71.09 58.78 71.09 58.78 71.09 47.79 60.05 36.7 71.09"></polygon>
			</g>
			<g id="Group" transform="translate(116.37, 27.9557)" fill="#4286F5">
				<path d="M38.5,35.5242859 C38.5,36.0242859 38.41,36.4942859 38.23,36.9242859 C38.05,37.3542859 37.8,37.7242859 37.49,38.0342859 C37.18,38.3442859 36.81,38.5942859 36.38,38.7742859 C35.95,38.9542859 35.49,39.0442859 34.98,39.0442859 L9.8,39.0442859 C9.16,39.0442859 8.46,38.9642859 7.72,38.8142859 C6.98,38.6642859 6.24,38.4242859 5.52,38.1042859 C4.8,37.7842859 4.1,37.3642859 3.44,36.8542859 C2.78,36.3442859 2.19,35.7242859 1.68,35.0042859 C1.17,34.2742859 0.76,33.4342859 0.46,32.4842859 C0.16,31.5242859 0,30.4442859 0,29.2542859 L0,10.3542859 C0,9.71428588 0.08,9.01428588 0.23,8.27428588 C0.38,7.53428588 0.62,6.79428588 0.94,6.07428588 C1.26,5.35428588 1.68,4.65428588 2.2,3.99428588 C2.72,3.33428588 3.34,2.74428588 4.07,2.23428588 C4.79,1.72428588 5.63,1.31428588 6.58,1.01428588 C7.53,0.714285879 8.6,0.554285879 9.8,0.554285879 L38.17,0.554285879 L38.17,7.53428588 L9.8,7.53428588 C8.89,7.53428588 8.19,7.77428588 7.71,8.26428588 C7.23,8.74428588 6.99,9.46428588 6.99,10.4142859 L6.99,29.2542859 C6.99,30.1442859 7.24,30.8442859 7.73,31.3342859 C8.22,31.8242859 8.91,32.0742859 9.81,32.0742859 L31.52,32.0742859 L31.52,23.3242859 L12.95,23.3242859 L12.95,16.2942859 L34.99,16.2942859 C35.49,16.2942859 35.96,16.3842859 36.39,16.5742859 C36.82,16.7642859 37.19,17.0142859 37.5,17.3442859 C37.81,17.6642859 38.06,18.0342859 38.24,18.4542859 C38.42,18.8742859 38.51,19.3242859 38.51,19.8142859 L38.51,35.5242859 L38.5,35.5242859 Z" id="Path"></path>
				<path d="M80.56,39.0442859 L55.38,39.0442859 C54.41,39.0442859 53.36,38.8742859 52.21,38.5342859 C51.06,38.1942859 50,37.6342859 49.03,36.8542859 C48.05,36.0742859 47.24,35.0642859 46.59,33.8242859 C45.94,32.5842859 45.61,31.0542859 45.61,29.2442859 L45.61,4.06428588 C45.61,3.58428588 45.7,3.12428588 45.88,2.69428588 C46.06,2.26428588 46.3,1.88428588 46.62,1.56428588 C46.93,1.24428588 47.3,0.994285879 47.73,0.814285879 C48.16,0.634285879 48.63,0.544285879 49.13,0.544285879 L80.56,0.544285879 L80.56,7.52428588 L52.59,7.52428588 L52.59,29.2342859 C52.59,30.1442859 52.83,30.8442859 53.31,31.3242859 C53.79,31.8042859 54.5,32.0542859 55.43,32.0542859 L80.55,32.0542859 L80.55,39.0442859 L80.56,39.0442859 Z M77.42,23.3142859 L55.38,23.3142859 L55.38,16.2842859 L77.42,16.2842859 L77.42,23.3142859 Z" id="Shape"></path>
				<path d="M132.1,39.0442859 L125.07,39.0442859 L125.07,16.1242859 L112.7,37.8942859 C112.4,38.4442859 111.97,38.8742859 111.43,39.1542859 C110.89,39.4342859 110.3,39.5842859 109.67,39.5842859 C109.06,39.5842859 108.49,39.4442859 107.97,39.1542859 C107.44,38.8642859 107.03,38.4442859 106.72,37.8942859 L94.29,16.1242859 L94.29,39.0442859 L87.31,39.0442859 L87.31,3.53428588 C87.31,2.72428588 87.55,2.01428588 88.02,1.38428588 C88.49,0.754285879 89.12,0.334285879 89.88,0.124285879 C90.26,0.0342858791 90.63,0.00428587909 91.01,0.0342858791 C91.39,0.0642858791 91.75,0.144285879 92.1,0.274285879 C92.45,0.404285879 92.77,0.594285879 93.05,0.834285879 C93.34,1.07428588 93.58,1.36428588 93.77,1.70428588 L109.66,29.3242859 L125.55,1.70428588 C125.96,1.02428588 126.53,0.544285879 127.25,0.254285879 C127.97,-0.0357141209 128.73,-0.0757141209 129.52,0.124285879 C130.27,0.334285879 130.89,0.764285879 131.37,1.38428588 C131.85,2.01428588 132.09,2.72428588 132.09,3.53428588 L132.09,39.0442859 L132.1,39.0442859 Z" id="Path"></path>
				<path d="M177.92,35.5242859 C177.92,36.0242859 177.83,36.4942859 177.65,36.9242859 C177.47,37.3542859 177.22,37.7242859 176.9,38.0342859 C176.58,38.3442859 176.2,38.5942859 175.77,38.7742859 C175.34,38.9542859 174.88,39.0442859 174.4,39.0442859 L158.67,39.0442859 C157.18,39.0442859 155.68,38.8842859 154.16,38.5642859 C152.64,38.2442859 151.17,37.7442859 149.74,37.0742859 C148.32,36.4042859 146.98,35.5442859 145.73,34.5142859 C144.48,33.4742859 143.38,32.2442859 142.44,30.8242859 C141.5,29.4042859 140.76,27.7742859 140.23,25.9342859 C139.69,24.1042859 139.42,22.0542859 139.42,19.8042859 L139.42,0.564285879 L146.4,0.564285879 L146.4,19.8042859 C146.4,21.7742859 146.67,23.4342859 147.22,24.7942859 C147.77,26.1542859 148.46,27.2942859 149.3,28.2042859 C150.14,29.1142859 151.06,29.8342859 152.06,30.3542859 C153.06,30.8742859 154.01,31.2542859 154.92,31.5042859 C155.82,31.7542859 156.62,31.9142859 157.31,31.9742859 C158,32.0342859 158.45,32.0642859 158.67,32.0642859 L170.94,32.0642859 L170.94,0.554285879 L177.92,0.554285879 L177.92,35.5242859 Z" id="Path"></path>
				<path d="M224.48,36.0642859 C224.48,36.5642859 224.39,37.0342859 224.2,37.4642859 C224.01,37.8942859 223.76,38.2642859 223.45,38.5742859 C223.14,38.8842859 222.77,39.1342859 222.34,39.3142859 C221.91,39.4942859 221.45,39.5842859 220.97,39.5842859 C220.54,39.5842859 220.11,39.5042859 219.67,39.3442859 C219.23,39.1842859 218.84,38.9242859 218.5,38.5642859 L193,11.9342859 L193,39.0442859 L186.02,39.0442859 L186.02,3.53428588 C186.02,2.81428588 186.22,2.17428588 186.62,1.58428588 C187.02,1.00428588 187.54,0.574285879 188.16,0.284285879 C188.82,0.0139110282 189.5,-0.0557141209 190.2,0.0842858791 C190.9,0.214285879 191.5,0.544285879 192,1.06428588 L217.5,27.6642859 L217.5,0.554285879 L224.48,0.554285879 L224.48,36.0642859 L224.48,36.0642859 Z" id="Path"></path>
				<polygon id="Path" points="239.62 39.0442859 232.64 39.0442859 232.64 0.554285879 239.62 0.554285879"></polygon>
				<path d="M288.18,23.4742859 C288.18,25.8142859 287.78,27.9742859 286.97,29.9442859 C286.16,31.9142859 285.05,33.6142859 283.61,35.0442859 C282.18,36.4742859 280.48,37.5942859 278.52,38.3842859 C276.56,39.1842859 274.43,39.5742859 272.12,39.5742859 L262.67,39.5742859 C260.36,39.5742859 258.22,39.1742859 256.25,38.3842859 C254.28,37.5942859 252.58,36.4742859 251.15,35.0442859 C249.72,33.6142859 248.6,31.9142859 247.78,29.9442859 C246.97,27.9742859 246.56,25.8242859 246.56,23.4742859 L246.56,16.1242859 C246.56,13.7942859 246.97,11.6442859 247.78,9.66428588 C248.59,7.68428588 249.72,5.98428588 251.15,4.56428588 C252.58,3.14428588 254.28,2.02428588 256.25,1.22428588 C258.22,0.414285879 260.36,0.0142858791 262.67,0.0142858791 L272.12,0.0142858791 C274.43,0.0142858791 276.56,0.414285879 278.52,1.22428588 C280.48,2.03428588 282.17,3.14428588 283.61,4.56428588 C285.04,5.98428588 286.16,7.68428588 286.97,9.66428588 C287.78,11.6442859 288.18,13.7942859 288.18,16.1242859 L288.18,23.4742859 Z M281.2,16.1242859 C281.2,14.7442859 280.98,13.4942859 280.54,12.3842859 C280.1,11.2642859 279.48,10.3042859 278.69,9.51428588 C277.89,8.71428588 276.94,8.10428588 275.82,7.66428588 C274.7,7.22428588 273.47,7.00428588 272.13,7.00428588 L262.68,7.00428588 C261.32,7.00428588 260.08,7.22428588 258.96,7.66428588 C257.84,8.10428588 256.88,8.72428588 256.07,9.51428588 C255.26,10.3142859 254.64,11.2642859 254.2,12.3842859 C253.76,13.5042859 253.54,14.7542859 253.54,16.1242859 L253.54,23.4742859 C253.54,24.8542859 253.76,26.1042859 254.2,27.2142859 C254.64,28.3342859 255.26,29.2942859 256.07,30.0842859 C256.88,30.8842859 257.84,31.4942859 258.96,31.9342859 C260.08,32.3742859 261.32,32.5942859 262.68,32.5942859 L272.07,32.5942859 C273.43,32.5942859 274.67,32.3742859 275.79,31.9342859 C276.91,31.4942859 277.87,30.8742859 278.68,30.0842859 C279.49,29.2842859 280.11,28.3342859 280.54,27.2142859 C280.98,26.0942859 281.2,24.8442859 281.2,23.4742859 L281.2,16.1242859 Z" id="Shape"></path>
				<path d="M333.54,36.0642859 C333.54,36.5642859 333.45,37.0342859 333.26,37.4642859 C333.07,37.8942859 332.82,38.2642859 332.51,38.5742859 C332.2,38.8842859 331.83,39.1342859 331.4,39.3142859 C330.97,39.4942859 330.51,39.5842859 330.03,39.5842859 C329.6,39.5842859 329.17,39.5042859 328.73,39.3442859 C328.29,39.1842859 327.9,38.9242859 327.56,38.5642859 L302.06,11.9342859 L302.06,39.0442859 L295.08,39.0442859 L295.08,3.53428588 C295.08,2.81428588 295.28,2.17428588 295.68,1.58428588 C296.08,1.00428588 296.6,0.574285879 297.22,0.284285879 C297.88,0.0139110282 298.56,-0.0557141209 299.26,0.0842858791 C299.96,0.214285879 300.56,0.544285879 301.06,1.06428588 L326.56,27.6642859 L326.56,0.554285879 L333.54,0.554285879 L333.54,36.0642859 L333.54,36.0642859 Z" id="Path"></path>
			</g>
		</g>
	</g>
</svg>