<?xml version="1.0" encoding="utf-8"?>
<!-- Generator: Adobe Illustrator 27.3.1, SVG Export Plug-In . SVG Version: 6.00 Build 0)  -->
<svg version="1.1" id="Layer_1" xmlns="http://www.w3.org/2000/svg" xmlns:xlink="http://www.w3.org/1999/xlink" x="0px" y="0px"
	 viewBox="0 0 449.9 95.5" style="enable-background:new 0 0 449.9 95.5;" xml:space="preserve">
<style type="text/css">
	.st0{fill:#2B75E0;}
	.st1{fill:#64A3FF;}
</style>
<g>
	<g>
		<path class="st0" d="M163.3,65.8h-23.5c-0.9,0-1.9-0.2-3-0.5c-1.1-0.3-2-0.9-3-1.5c-1-0.8-1.6-1.6-2.3-2.9c-0.6-1.2-1-2.6-1-4.3
			V33c0-0.5,0.1-0.9,0.3-1.3c0.2-0.4,0.4-0.8,0.7-1.1c0.3-0.3,0.7-0.6,1.1-0.7c0.4-0.2,0.9-0.3,1.3-0.3h29.4v6.5h-26.1v20.3
			c0,0.9,0.2,1.5,0.7,1.9c0.5,0.5,1.2,0.7,2,0.7h23.5L163.3,65.8L163.3,65.8z M160.3,51.1h-20.6v-6.5h20.6V51.1z"/>
		<path class="st0" d="M202,36.3h-14.4v29.5h-6.5V36.3h-14.4v-6.5H202V36.3z"/>
		<path class="st0" d="M213.4,44.4h22.9V29.7h6.5v36.1h-6.5V51.1h-22.9v14.7h-6.5V29.7h6.5V44.4z"/>
		<path class="st0" d="M286.3,57.8c0,0.8-0.1,1.6-0.4,2.6s-0.8,1.7-1.3,2.6c-0.7,0.8-1.4,1.4-2.4,2c-1,0.5-2.2,0.8-3.6,0.8h-24.7
			c-0.5,0-0.9-0.1-1.3-0.3c-0.4-0.2-0.8-0.4-1.1-0.7c-0.3-0.3-0.5-0.7-0.7-1.1c-0.2-0.4-0.3-0.9-0.3-1.3V33c0-0.5,0.1-0.9,0.3-1.3
			c0.2-0.4,0.4-0.8,0.7-1.1c0.3-0.3,0.7-0.6,1.1-0.7c0.4-0.2,0.9-0.3,1.3-0.3h21.8c0.8,0,1.6,0.1,2.6,0.4s1.8,0.8,2.6,1.3
			c0.8,0.7,1.4,1.4,2,2.4c0.5,1,0.8,2.2,0.8,3.7v1.3c0,1.2-0.2,2.4-0.6,3.8c-0.4,1.3-1,2.6-1.8,3.8c0.8,0.5,1.4,1,2.1,1.6
			c0.7,0.7,1.2,1.3,1.7,2.2s0.9,1.8,1.2,2.9c0.3,1.1,0.4,2.2,0.4,3.5v1.3H286.3z M279.8,56.6c0-0.9-0.1-1.6-0.4-2.3
			c-0.3-0.7-0.7-1.3-1.2-1.7c-0.5-0.5-1.1-0.9-1.7-1.2c-0.7-0.3-1.4-0.4-2.3-0.4h-14.7v-6.5h11.8c0.9,0,1.6-0.1,2.3-0.4
			c0.7-0.3,1.2-0.7,1.7-1.2c0.5-0.5,0.9-1.1,1.2-1.7c0.3-0.7,0.4-1.4,0.4-2.3v-1.3c0-1-0.5-1.4-1.3-1.4H257v23h21.5
			c0.1,0,0.3,0,0.4,0c0.2,0,0.3-0.1,0.5-0.2c0.1-0.1,0.3-0.2,0.4-0.4c0.1-0.2,0.2-0.5,0.2-0.9L279.8,56.6L279.8,56.6z"/>
		<path class="st0" d="M324.4,65.8h-23.5c-0.9,0-1.9-0.2-3-0.5c-1.1-0.3-2-0.9-3-1.5c-1-0.8-1.6-1.6-2.3-2.9c-0.6-1.2-1-2.6-1-4.3
			V33c0-0.5,0.1-0.9,0.3-1.3c0.2-0.4,0.4-0.8,0.7-1.1c0.3-0.3,0.7-0.6,1.1-0.7c0.4-0.2,0.9-0.3,1.3-0.3h29.4v6.5h-26.1v20.3
			c0,0.9,0.2,1.5,0.7,1.9c0.5,0.5,1.2,0.7,2,0.7h23.5L324.4,65.8L324.4,65.8z M321.6,51.1h-20.6v-6.5h20.6V51.1z"/>
		<path class="st0" d="M366.7,41.8c0,1.5-0.2,2.8-0.6,4c-0.4,1.2-0.9,2.2-1.5,3.1c-0.7,0.9-1.3,1.6-2.2,2.3
			c-0.9,0.7-1.6,1.2-2.6,1.5c-0.9,0.4-1.8,0.7-2.7,0.9c-1,0.2-1.7,0.3-2.6,0.3l13.6,11.8h-10.1L344.5,54h-4.7v-6.5h14.8
			c0.9-0.1,1.5-0.2,2.2-0.5c0.7-0.3,1.2-0.7,1.7-1.2c0.5-0.5,0.9-1.1,1.2-1.7c0.3-0.7,0.4-1.4,0.4-2.3v-4.1c0-0.4-0.1-0.7-0.1-0.9
			c-0.1-0.2-0.2-0.3-0.4-0.4c-0.1-0.1-0.3-0.2-0.5-0.2c-0.2,0-0.3,0-0.5,0h-21.3v29.5h-6.5V32.9c0-0.5,0.1-0.9,0.3-1.3
			c0.2-0.4,0.4-0.8,0.7-1.1c0.3-0.3,0.7-0.6,1.1-0.7c0.4-0.2,0.9-0.3,1.3-0.3h24.7c1.4,0,2.7,0.3,3.6,0.8c1,0.5,1.8,1.2,2.4,2
			c0.7,0.8,1.1,1.6,1.3,2.6c0.3,1,0.4,1.8,0.4,2.6L366.7,41.8L366.7,41.8z"/>
		<path class="st0" d="M409.1,41.8c0,1.5-0.2,2.8-0.6,4c-0.4,1.2-0.9,2.2-1.5,3.1c-0.7,0.9-1.3,1.6-2.2,2.3
			c-0.9,0.7-1.6,1.2-2.6,1.5c-0.9,0.4-1.8,0.7-2.7,0.9c-1,0.2-1.7,0.3-2.6,0.3l13.6,11.8h-10L387,54h-4.6v-6.5h14.8
			c0.9-0.1,1.5-0.2,2.2-0.5c0.7-0.3,1.2-0.7,1.7-1.2c0.5-0.5,0.9-1.1,1.2-1.7c0.3-0.7,0.4-1.4,0.4-2.3v-4.1c0-0.4-0.1-0.7-0.1-0.9
			c0-0.2-0.2-0.3-0.4-0.4c-0.1-0.1-0.3-0.2-0.5-0.2s-0.3,0-0.5,0h-21.5v29.5h-6.5V32.9c0-0.5,0.1-0.9,0.3-1.3
			c0.2-0.4,0.4-0.8,0.7-1.1c0.3-0.3,0.7-0.6,1.1-0.7c0.4-0.2,0.9-0.3,1.3-0.3h24.7c1.4,0,2.7,0.3,3.6,0.8c1,0.5,1.8,1.2,2.4,2
			c0.7,0.8,1.1,1.6,1.3,2.6c0.3,1,0.4,1.8,0.4,2.6L409.1,41.8L409.1,41.8z"/>
		<path class="st0" d="M449.9,41.7c0,1.5-0.2,2.8-0.6,4c-0.4,1.2-0.9,2.2-1.5,3.1c-0.6,0.9-1.3,1.6-2.2,2.3
			c-0.9,0.7-1.7,1.2-2.6,1.5s-1.8,0.7-2.7,0.9c-1,0.2-1.7,0.3-2.6,0.3h-2.6v11.8h-6.5V53.9H426c-0.8,0-1.6-0.1-2.6-0.3
			c-1-0.2-1.8-0.5-2.7-0.9c-0.9-0.4-1.7-1-2.6-1.5c-0.9-0.7-1.5-1.4-2.2-2.3c-0.7-0.9-1.2-1.9-1.5-3.1c-0.4-1.2-0.6-2.5-0.6-3.9v-12
			h6.5v12c0,0.9,0.1,1.6,0.4,2.3c0.3,0.7,0.7,1.3,1.2,1.7c0.5,0.5,1.1,0.9,1.7,1.2c0.7,0.3,1.4,0.4,2.3,0.4h11.8
			c0.6-0.1,1.2-0.2,1.9-0.4c0.7-0.2,1.2-0.4,1.8-0.8c0.6-0.4,1-1,1.3-1.6c0.4-0.7,0.5-1.6,0.5-2.7v-12h6.5L449.9,41.7L449.9,41.7z"
			/>
	</g>
	<path class="st0" d="M55.2,3.7C36.2,3.7,20,16,13.9,32.9H7.6H5.5L0,42h2.2l0,0h9.5c-0.3,1.9-0.4,3.8-0.4,5.8
		c0,24.2,19.7,44,43.8,44S99,72,99,47.8S79.3,3.7,55.2,3.7z M55.2,80.9c-18.2,0-33.1-14.9-33.1-33.2c0-1.9,0.2-3.8,0.6-5.8l57,0.1
		c-2.4-11.3-12.5-19.9-24.5-19.9c-7.3,0-13.8,3.2-18.4,8.2c-0.8,0.8-1.4,1.6-2,2.5h-9.1c5.5-10.9,16.6-18.3,29.5-18.3
		c18.2,0,33.1,14.9,33.1,33.2S73.4,80.9,55.2,80.9z"/>
	<path class="st1" d="M98.4,53.6H88.1h-8.8H30.9c2.8,10.8,12.6,18.8,24.2,18.8c8,0,15.2-3.8,19.7-9.6h1h1.1H85h10.3h9.8l5.3-9.1
		H98.4z"/>
</g>
</svg>
