<?xml version="1.0" encoding="utf-8"?>
<svg version="1.1" xmlns="http://www.w3.org/2000/svg" xmlns:xlink="http://www.w3.org/1999/xlink" x="0px" y="0px"
	 viewBox="0 0 30 30" style="enable-background:new 0 0 30 30;" xml:space="preserve">
<style type="text/css">
	.st0{fill:#FFFFFF;}
</style>
<g>
	<circle cx="15" cy="15" r="15"/>
	<path class="st0" d="M24.64,14.41c-0.54-2.42-1.78-4.7-1.92-4.92c-0.14-0.22-0.73-0.58-1.49-0.98c-0.75-0.4-2.62-0.88-3.13-0.93
		c-0.5-0.05-0.53,0.13-0.49,0.28C17.67,8,19.01,8.4,19.88,8.72c0.87,0.32,1.88,1.07,1.88,1.07s-2.34-0.9-3.46-1.15
		C17.18,8.4,15,8.3,15,8.3s-2.18,0.09-3.3,0.34c-1.12,0.25-3.46,1.15-3.46,1.15s1.01-0.75,1.88-1.07C10.99,8.4,12.33,8,12.38,7.86
		c0.05-0.15,0.02-0.32-0.49-0.28c-0.5,0.05-2.38,0.52-3.13,0.93c-0.75,0.4-1.35,0.76-1.49,0.98c-0.14,0.22-1.38,2.5-1.92,4.92
		c-0.54,2.42-0.62,5.39-0.62,5.39s0.67,0.86,1.97,1.64c1.66,0.98,3.46,0.98,3.46,0.98l1.15-1.47c0,0-1.6-0.72-2.01-1.03
		C8.9,19.63,8.45,19,8.45,19s2.77,1.4,4.33,1.62c1.56,0.22,2.04,0.2,2.04,0.2H15h0.17c0,0,0.49,0.02,2.04-0.2
		C18.78,20.4,21.55,19,21.55,19s-0.45,0.63-0.85,0.94c-0.4,0.3-2.01,1.03-2.01,1.03l1.15,1.47c0,0,1.36,0.05,3.34-0.91
		c1.18-0.57,2.09-1.71,2.09-1.71S25.18,16.83,24.64,14.41z M11.76,18.12c-1.05,0-1.89-0.92-1.89-2.04s0.85-2.04,1.89-2.04
		c1.05,0,1.89,0.92,1.89,2.04S12.81,18.12,11.76,18.12z M18.24,18.12c-1.05,0-1.89-0.92-1.89-2.04s0.85-2.04,1.89-2.04
		c1.05,0,1.89,0.92,1.89,2.04S19.28,18.12,18.24,18.12z"/>
</g>
</svg>
