<?xml version="1.0" encoding="utf-8"?>
<svg version="1.1" id="Слой_1" xmlns="http://www.w3.org/2000/svg" xmlns:xlink="http://www.w3.org/1999/xlink" x="0px" y="0px"
	 viewBox="0 0 30 30" style="enable-background:new 0 0 30 30;" xml:space="preserve">
<style type="text/css">
	.st0{fill:#FFFFFF;}
</style>
<g>
	<circle cx="15" cy="15" r="15"/>
	<g>
		<path class="st0" d="M23.78,22.32c-1.26,0-2.47,0-3.72,0c0-0.13,0-0.25,0-0.37c0-1.85,0.02-3.7-0.01-5.55
			c-0.01-0.56-0.09-1.16-0.29-1.68c-0.53-1.35-2.4-1.28-3.19-0.33c-0.36,0.43-0.53,0.91-0.53,1.47c0,2.03,0,4.05,0,6.08
			c0,0.12,0,0.24,0,0.38c-1.25,0-2.47,0-3.7,0c0-3.75,0-7.49,0-11.25c1.23,0,2.44,0,3.69,0c0,0.49,0,0.97,0,1.46
			c0.02,0.01,0.05,0.02,0.07,0.04c0.06-0.07,0.13-0.13,0.18-0.2c1.49-2.16,4.74-1.93,6.17-0.44c0.8,0.83,1.15,1.86,1.27,2.97
			c0.05,0.44,0.06,0.88,0.06,1.32c0.01,1.9,0,3.8,0,5.71C23.78,22.05,23.78,22.17,23.78,22.32z"/>
		<path class="st0" d="M10.16,11.06c0,3.76,0,7.49,0,11.25c-1.23,0-2.46,0-3.7,0c0-3.75,0-7.49,0-11.25
			C7.69,11.06,8.91,11.06,10.16,11.06z"/>
		<path class="st0" d="M8.36,9.43C7.51,9.47,6.71,9.01,6.38,8.27c-0.31-0.7-0.17-1.56,0.4-2.1c0.65-0.62,1.43-0.72,2.26-0.49
			c0.73,0.21,1.17,0.72,1.33,1.47c0.22,1.07-0.57,2.12-1.7,2.25C8.56,9.41,8.46,9.42,8.36,9.43z"/>
	</g>
</g>
</svg>
