<?xml version="1.0" encoding="utf-8"?>
<svg version="1.1" id="Слой_1" xmlns="http://www.w3.org/2000/svg" xmlns:xlink="http://www.w3.org/1999/xlink" x="0px" y="0px"
	 viewBox="0 0 30 30" style="enable-background:new 0 0 30 30;" xml:space="preserve">
<style type="text/css">
	.st0{fill:#FFFFFF;}
</style>
<g>
	<path class="st0" d="M21.51,9.09c-0.12,0.03-0.24,0.07-0.36,0.12c-3.41,1.31-6.81,2.63-10.22,3.94c-1.38,0.53-2.76,1.06-4.13,1.6
		c-0.28,0.11-0.64,0.24-0.63,0.61c0.01,0.38,0.39,0.44,0.68,0.53c0.94,0.3,1.9,0.56,2.83,0.9c0.52,0.19,0.9,0.12,1.36-0.17
		c2.59-1.66,5.2-3.29,7.81-4.93c0.14-0.09,0.31-0.18,0.47-0.22c0.08-0.02,0.2-0.02,0.25,0.09c0.05,0.1-0.16,0.3-0.18,0.33
		c-2.22,2.01-4.45,4.01-6.66,6.03c-0.11,0.1-0.19,0.27-0.2,0.42c-0.07,0.83-0.13,1.67-0.18,2.51c-0.02,0.33-0.04,0.66-0.06,1.1
		c0.27-0.17,0.51-0.27,0.68-0.44c0.62-0.58,1.23-1.17,1.85-1.78c0.08,0.05,0.13,0.09,0.17,0.12c1.15,0.84,2.29,1.69,3.44,2.53
		c0.76,0.56,1.3,0.34,1.49-0.58c0.78-3.66,1.56-7.32,2.32-10.99c0.08-0.37,0.14-0.75,0.13-1.12C22.34,9.24,21.96,9,21.51,9.09z"/>
	<path d="M29.88,13c-0.16-1.43-0.57-2.78-1.15-4.1c-0.48-1.09-1.1-2.1-1.82-3.05c-0.63-0.83-1.36-1.56-2.14-2.25
		c-1.02-0.9-2.16-1.63-3.39-2.2c-1.25-0.58-2.56-0.98-3.93-1.21c-1.21-0.21-2.42-0.23-3.62-0.14c-0.98,0.07-1.95,0.29-2.9,0.52
		C9.92,0.79,8.96,1.2,8.04,1.7C7.04,2.23,6.12,2.85,5.26,3.59c-1.14,0.99-2.13,2.1-2.94,3.37c-0.92,1.44-1.54,3-1.95,4.66
		C0,13.13-0.05,14.67,0.04,16.2c0.1,1.69,0.53,3.32,1.22,4.87c0.6,1.35,1.38,2.58,2.34,3.7c1.17,1.35,2.52,2.47,4.07,3.35
		c1.38,0.78,2.86,1.31,4.41,1.63c0.48,0.1,0.97,0.13,1.46,0.19c0.04,0.01,0.08,0.04,0.12,0.06c0.9,0,1.8,0,2.69,0
		c0.22-0.04,0.44-0.09,0.66-0.12c1.39-0.16,2.71-0.56,3.99-1.1c1.16-0.49,2.25-1.12,3.22-1.92c0.78-0.64,1.48-1.36,2.17-2.1
		c0.93-0.99,1.63-2.15,2.21-3.38c0.54-1.14,0.94-2.34,1.15-3.58c0.08-0.45,0.12-0.91,0.18-1.37c0-0.03,0.04-0.06,0.06-0.09
		c0-0.9,0-1.8,0-2.69C29.96,13.44,29.91,13.22,29.88,13z M15,27.87c-6.88,0-12.46-5.58-12.46-12.46S8.12,2.94,15,2.94
		S27.46,8.52,27.46,15.4S21.88,27.87,15,27.87z"/>
	<path d="M15,2.94C8.12,2.94,2.54,8.52,2.54,15.4S8.12,27.87,15,27.87s12.46-5.58,12.46-12.46S21.88,2.94,15,2.94z M22.23,10.82
		c-0.77,3.66-1.55,7.32-2.32,10.99c-0.19,0.92-0.73,1.13-1.49,0.58c-1.15-0.84-2.29-1.69-3.44-2.53c-0.05-0.03-0.1-0.07-0.17-0.12
		c-0.63,0.6-1.23,1.2-1.85,1.78c-0.18,0.16-0.41,0.26-0.68,0.44c0.03-0.44,0.04-0.77,0.06-1.1c0.06-0.84,0.11-1.67,0.18-2.51
		c0.01-0.15,0.09-0.32,0.2-0.42c2.22-2.02,4.44-4.02,6.66-6.03c0.03-0.03,0.23-0.23,0.18-0.33c-0.05-0.11-0.17-0.11-0.25-0.09
		c-0.16,0.04-0.33,0.13-0.47,0.22c-2.61,1.64-5.22,3.27-7.81,4.93c-0.46,0.3-0.84,0.37-1.36,0.17c-0.93-0.34-1.89-0.6-2.83-0.9
		c-0.29-0.09-0.67-0.15-0.68-0.53c-0.01-0.36,0.35-0.5,0.63-0.61c1.37-0.54,2.75-1.07,4.13-1.6c3.41-1.31,6.81-2.63,10.22-3.94
		c0.12-0.05,0.24-0.09,0.36-0.12c0.45-0.1,0.83,0.15,0.85,0.6C22.38,10.07,22.31,10.45,22.23,10.82z"/>
</g>
</svg>
