<?xml version="1.0" encoding="utf-8"?>
<svg version="1.1" id="Слой_1" xmlns="http://www.w3.org/2000/svg" xmlns:xlink="http://www.w3.org/1999/xlink" x="0px" y="0px"
	 viewBox="0 0 30 30" style="enable-background:new 0 0 30 30;" xml:space="preserve">
<style type="text/css">
	.st0{fill:#FFFFFF;}
</style>
<g>
	<circle cx="15" cy="15" r="15"/>
	<path class="st0" d="M23.11,15.01c0,0.53,0.02,1.06,0,1.59c-0.03,0.81-0.07,1.63-0.33,2.41c-0.27,0.83-0.85,1.33-1.72,1.46
		c-0.45,0.06-0.9,0.11-1.35,0.13c-0.85,0.04-1.7,0.07-2.54,0.09c-1.35,0.02-2.71,0.04-4.06,0.04c-0.55,0-1.1-0.01-1.65-0.04
		c-0.71-0.04-1.41-0.12-2.12-0.16c-0.39-0.02-0.76-0.11-1.11-0.3c-0.64-0.35-0.95-0.92-1.09-1.61c-0.19-0.93-0.24-1.87-0.22-2.82
		c0-0.26-0.04-0.53-0.04-0.79c0.01-0.62,0-1.24,0.05-1.86c0.06-0.74,0.08-1.48,0.34-2.19c0.29-0.79,0.84-1.29,1.69-1.41
		c0.47-0.07,0.94-0.1,1.42-0.13c0.78-0.04,1.55-0.07,2.33-0.09c1.35-0.02,2.69-0.04,4.04-0.04c0.61,0,1.23,0.01,1.84,0.04
		c0.65,0.03,1.29,0.07,1.93,0.13c0.33,0.03,0.67,0.07,0.97,0.18c0.73,0.27,1.2,0.81,1.36,1.57c0.11,0.54,0.19,1.09,0.21,1.63
		c0.04,0.72,0.01,1.44,0.01,2.16C23.08,15.01,23.1,15.01,23.11,15.01z M18.33,14.85c-1.86-0.97-3.67-1.91-5.5-2.87
		c0,1.93,0,3.81,0,5.72C14.66,16.75,16.48,15.81,18.33,14.85z"/>
</g>
</svg>
