<?xml version="1.0" encoding="utf-8"?>
<svg version="1.1" id="Слой_1" xmlns="http://www.w3.org/2000/svg" xmlns:xlink="http://www.w3.org/1999/xlink" x="0px" y="0px"
	 viewBox="0 0 30 30" style="enable-background:new 0 0 30 30;" xml:space="preserve">
<style type="text/css">
	.st0{fill:#FFFFFF;}
</style>
<g>
	<path class="st0" d="M18.75,28.41c0-1.38,0-2.75,0.01-4.13c0.01-0.9-0.21-1.7-0.83-2.36c-0.03-0.03-0.04-0.07-0.06-0.1
		c0.75-0.17,1.49-0.32,2.22-0.52c2.44-0.68,3.84-2.34,4.34-4.84c0.25-1.26,0.37-2.51,0-3.77c-0.23-0.78-0.51-1.53-1.06-2.15
		c-0.2-0.22-0.26-0.44-0.17-0.72c0.37-1.13,0.19-2.23-0.18-3.33c-0.1-0.3-0.26-0.42-0.54-0.35c-0.56,0.13-1.13,0.23-1.66,0.44
		c-0.62,0.25-1.2,0.59-1.78,0.93c-0.23,0.14-0.44,0.17-0.7,0.11c-1.15-0.28-2.32-0.52-3.51-0.44c-1.07,0.07-2.14,0.27-3.2,0.45
		c-0.27,0.04-0.49,0.02-0.72-0.13C10.01,6.92,9.05,6.43,8,6.2C7.75,6.14,7.49,6.15,7.23,6.16c-0.08,0-0.2,0.09-0.21,0.16
		C6.88,6.86,6.7,7.41,6.67,7.96c-0.04,0.7-0.11,1.43,0.18,2.12c0.04,0.09-0.06,0.27-0.15,0.37c-0.67,0.78-1.12,1.69-1.23,2.7
		c-0.2,1.83-0.12,3.66,0.79,5.33c0.78,1.43,1.98,2.34,3.51,2.79c0.76,0.22,1.53,0.37,2.3,0.55c-0.18,0.31-0.37,0.6-0.53,0.91
		c-0.08,0.15-0.18,0.34-0.17,0.5c0.03,0.45-0.25,0.56-0.58,0.66c-0.93,0.27-1.85,0.3-2.71-0.24C7.8,23.49,7.56,23.24,7.35,23
		c-0.36-0.42-0.66-0.89-1.03-1.3c-0.58-0.66-1.33-0.83-2.17-0.69c-0.27,0.05-0.36,0.25-0.17,0.46c0.17,0.18,0.36,0.34,0.57,0.48
		c0.75,0.53,1.25,1.25,1.58,2.09c0.49,1.29,1.43,2.01,2.74,2.19c0.68,0.09,1.39,0,2.09-0.02c0.07,0,0.14-0.01,0.26-0.02
		c0,0.19,0,0.35,0,0.51c0.01,0.63,0.02,1.26,0.01,1.89c0,0.48-0.15,0.72-0.49,0.76C12.08,29.78,13.52,30,15,30
		c1.5,0,2.95-0.23,4.31-0.65C18.95,29.29,18.75,28.98,18.75,28.41z"/>
	<path d="M0,14.85c-0.01,1.04,0.08,2.09,0.27,3.12c0.42,2.24,1.34,4.27,2.7,6.08c1.73,2.31,3.93,4.01,6.61,5.04
		c0.26,0.1,0.52,0.22,0.79,0.26c0.14,0.02,0.26,0.03,0.36,0.02C4.58,27.51,0.07,21.72,0,14.85z"/>
	<path d="M19.31,29.35c0.18,0.03,0.39,0,0.64-0.1c1.1-0.43,2.18-0.9,3.19-1.56c1.81-1.18,3.31-2.66,4.48-4.49
		c1.23-1.92,2.06-4,2.28-6.31c0.07-0.71,0.1-1.42,0.09-2.13C29.96,21.66,25.47,27.47,19.31,29.35z"/>
	<path d="M30,14.78c-0.01-0.74-0.06-1.47-0.15-2.21c-0.19-1.48-0.72-2.87-1.37-4.19c-1.14-2.33-2.8-4.22-4.9-5.69
		c-2.13-1.49-4.49-2.34-7.05-2.61c-2.44-0.26-4.81,0.08-7.08,1C7.08,2.04,5.06,3.5,3.43,5.51c-1.71,2.11-2.79,4.49-3.24,7.2
		C0.07,13.43,0.01,14.14,0,14.85c0.07,6.87,4.57,12.65,10.73,14.52c0.34-0.04,0.49-0.28,0.49-0.76c0.01-0.63-0.01-1.26-0.01-1.89
		c0-0.16,0-0.33,0-0.51c-0.12,0.01-0.19,0.02-0.26,0.02c-0.7,0.01-1.41,0.11-2.09,0.02c-1.3-0.18-2.24-0.9-2.74-2.19
		c-0.32-0.85-0.83-1.56-1.58-2.09c-0.2-0.14-0.4-0.3-0.57-0.48c-0.19-0.21-0.11-0.41,0.17-0.46c0.83-0.15,1.58,0.03,2.17,0.69
		c0.36,0.41,0.67,0.88,1.03,1.3c0.21,0.25,0.45,0.5,0.72,0.67c0.85,0.54,1.77,0.51,2.71,0.24c0.34-0.1,0.61-0.22,0.58-0.66
		c-0.01-0.16,0.08-0.35,0.17-0.5c0.16-0.31,0.35-0.61,0.53-0.91c-0.76-0.18-1.54-0.33-2.3-0.55c-1.53-0.45-2.73-1.36-3.51-2.79
		c-0.91-1.67-0.99-3.5-0.79-5.33c0.11-1.01,0.56-1.92,1.23-2.7c0.08-0.1,0.18-0.28,0.15-0.37C6.56,9.39,6.62,8.67,6.67,7.96
		c0.04-0.55,0.22-1.1,0.35-1.65c0.02-0.07,0.14-0.16,0.21-0.16C7.49,6.15,7.75,6.14,8,6.2c1.06,0.24,2.01,0.72,2.92,1.3
		c0.24,0.15,0.45,0.17,0.72,0.13c1.06-0.17,2.13-0.37,3.2-0.45c1.18-0.08,2.35,0.16,3.51,0.44c0.26,0.06,0.46,0.03,0.7-0.11
		c0.58-0.34,1.16-0.68,1.78-0.93c0.53-0.21,1.1-0.31,1.66-0.44c0.28-0.07,0.44,0.06,0.54,0.35c0.37,1.1,0.55,2.2,0.18,3.33
		c-0.09,0.28-0.03,0.5,0.17,0.72c0.55,0.61,0.83,1.37,1.06,2.15c0.37,1.25,0.25,2.51,0,3.77c-0.5,2.5-1.9,4.16-4.34,4.84
		c-0.73,0.2-1.47,0.35-2.22,0.52c0.02,0.03,0.03,0.07,0.06,0.1c0.62,0.66,0.84,1.47,0.83,2.36c-0.01,1.38-0.01,2.75-0.01,4.13
		c0,0.57,0.2,0.88,0.56,0.94C25.47,27.47,29.96,21.66,30,14.78z"/>
</g>
</svg>
