<?xml version="1.0" encoding="utf-8"?>
<!-- Generator: Adobe Illustrator 27.3.1, SVG Export Plug-In . SVG Version: 6.00 Build 0)  -->
<svg version="1.1" id="Слой_1" xmlns="http://www.w3.org/2000/svg" xmlns:xlink="http://www.w3.org/1999/xlink" x="0px" y="0px"
	 viewBox="0 0 1000 1000" style="enable-background:new 0 0 1000 1000;" xml:space="preserve">
<style type="text/css">
	.st0{fill:#2B75E0;}
	.st1{fill:#64A3FF;}
	.st2{fill:none;}
</style>
<g>
	<g>
		<path class="st0" d="M499.2,866.8c-98,0-190.1-38.2-259.4-107.4C170.6,690.1,132.4,598,132.4,500c0-98,38.2-190.1,107.4-259.4
			c69.3-69.3,161.4-107.4,259.4-107.4c98,0,190.1,38.2,259.4,107.4C827.8,309.9,866,402,866,500c0,98-38.2,190.1-107.4,259.4
			C689.3,828.6,597.2,866.8,499.2,866.8z M499.2,209.4C339,209.4,208.6,339.8,208.6,500c0,160.2,130.3,290.6,290.6,290.6
			c160.2,0,290.6-130.3,290.6-290.6C789.8,339.8,659.4,209.4,499.2,209.4z"/>
	</g>
	<path class="st0" d="M499.2,286.7c-75.9,0-142.6,39.7-180.5,99.4H82.5L37,462.2h252.1h109.7h310.5
		C691.4,362.4,604.1,286.7,499.2,286.7z"/>
	<path class="st1" d="M963,537.8H709.3H555.9H289.1c17.9,99.8,105.2,175.5,210.1,175.5c75.9,0,142.6-39.7,180.5-99.4h239.6
		L963,537.8z"/>
</g>
<rect class="st2" width="1000" height="1000"/>
</svg>
