<?xml version="1.0" encoding="utf-8"?>
<!-- Generator: Adobe Illustrator 27.3.1, SVG Export Plug-In . SVG Version: 6.00 Build 0)  -->
<svg version="1.1" id="Layer_1" xmlns="http://www.w3.org/2000/svg" xmlns:xlink="http://www.w3.org/1999/xlink" x="0px" y="0px"
	 viewBox="0 0 449.9 95.5" style="enable-background:new 0 0 449.9 95.5;" xml:space="preserve">
<style type="text/css">
	.st0{fill:#FFFFFF;}
</style>
<g>
	<path class="st0" d="M159.7,65.9h-23.5c-0.9,0-1.9-0.2-3-0.5s-2-0.9-3-1.5c-1-0.8-1.6-1.6-2.3-2.9c-0.6-1.2-1-2.6-1-4.3V33.1
		c0-0.5,0.1-0.9,0.3-1.3s0.4-0.8,0.7-1.1c0.3-0.3,0.7-0.6,1.1-0.7c0.4-0.2,0.9-0.3,1.3-0.3h29.4v6.5h-26.1v20.3
		c0,0.9,0.2,1.5,0.7,1.9c0.5,0.5,1.2,0.7,2,0.7h23.5L159.7,65.9L159.7,65.9z M156.7,51.2h-20.6v-6.5h20.6V51.2z"/>
	<path class="st0" d="M198.4,36.4H184v29.5h-6.5V36.4h-14.4v-6.5h35.3V36.4z"/>
	<path class="st0" d="M209.8,44.5h22.9V29.8h6.5v36.1h-6.5V51.2h-22.9v14.7h-6.5V29.8h6.5V44.5z"/>
	<path class="st0" d="M282.7,57.9c0,0.8-0.1,1.6-0.4,2.6s-0.8,1.7-1.3,2.6c-0.7,0.8-1.4,1.4-2.4,2c-1,0.5-2.2,0.8-3.6,0.8h-24.7
		c-0.5,0-0.9-0.1-1.3-0.3c-0.4-0.2-0.8-0.4-1.1-0.7c-0.3-0.3-0.5-0.7-0.7-1.1s-0.3-0.9-0.3-1.3V33.1c0-0.5,0.1-0.9,0.3-1.3
		s0.4-0.8,0.7-1.1c0.3-0.3,0.7-0.6,1.1-0.7c0.4-0.2,0.9-0.3,1.3-0.3h21.8c0.8,0,1.6,0.1,2.6,0.4s1.8,0.8,2.6,1.3
		c0.8,0.7,1.4,1.4,2,2.4c0.5,1,0.8,2.2,0.8,3.7v1.3c0,1.2-0.2,2.4-0.6,3.8c-0.4,1.3-1,2.6-1.8,3.8c0.8,0.5,1.4,1,2.1,1.6
		c0.7,0.7,1.2,1.3,1.7,2.2s0.9,1.8,1.2,2.9c0.3,1.1,0.4,2.2,0.4,3.5v1.3H282.7z M276.2,56.7c0-0.9-0.1-1.6-0.4-2.3s-0.7-1.3-1.2-1.7
		c-0.5-0.5-1.1-0.9-1.7-1.2c-0.7-0.3-1.4-0.4-2.3-0.4h-14.7v-6.5h11.8c0.9,0,1.6-0.1,2.3-0.4c0.7-0.3,1.2-0.7,1.7-1.2
		s0.9-1.1,1.2-1.7c0.3-0.7,0.4-1.4,0.4-2.3v-1.3c0-1-0.5-1.4-1.3-1.4h-18.6v23h21.5c0.1,0,0.3,0,0.4,0c0.2,0,0.3-0.1,0.5-0.2
		c0.1-0.1,0.3-0.2,0.4-0.4s0.2-0.5,0.2-0.9L276.2,56.7L276.2,56.7z"/>
	<path class="st0" d="M320.8,65.9h-23.5c-0.9,0-1.9-0.2-3-0.5s-2-0.9-3-1.5c-1-0.8-1.6-1.6-2.3-2.9c-0.6-1.2-1-2.6-1-4.3V33.1
		c0-0.5,0.1-0.9,0.3-1.3c0.2-0.4,0.4-0.8,0.7-1.1c0.3-0.3,0.7-0.6,1.1-0.7c0.4-0.2,0.9-0.3,1.3-0.3h29.4v6.5h-26.1v20.3
		c0,0.9,0.2,1.5,0.7,1.9c0.5,0.5,1.2,0.7,2,0.7h23.5L320.8,65.9L320.8,65.9z M318,51.2h-20.6v-6.5H318V51.2z"/>
	<path class="st0" d="M363.1,41.9c0,1.5-0.2,2.8-0.6,4s-0.9,2.2-1.5,3.1c-0.7,0.9-1.3,1.6-2.2,2.3c-0.9,0.7-1.6,1.2-2.6,1.5
		c-0.9,0.4-1.8,0.7-2.7,0.9c-1,0.2-1.7,0.3-2.6,0.3l13.6,11.8h-10.1l-13.5-11.7h-4.7v-6.5H351c0.9-0.1,1.5-0.2,2.2-0.5
		s1.2-0.7,1.7-1.2s0.9-1.1,1.2-1.7c0.3-0.7,0.4-1.4,0.4-2.3v-4.1c0-0.4-0.1-0.7-0.1-0.9c-0.1-0.2-0.2-0.3-0.4-0.4
		c-0.1-0.1-0.3-0.2-0.5-0.2s-0.3,0-0.5,0h-21.3v29.5h-6.5V33c0-0.5,0.1-0.9,0.3-1.3c0.2-0.4,0.4-0.8,0.7-1.1
		c0.3-0.3,0.7-0.6,1.1-0.7c0.4-0.2,0.9-0.3,1.3-0.3h24.7c1.4,0,2.7,0.3,3.6,0.8c1,0.5,1.8,1.2,2.4,2c0.7,0.8,1.1,1.6,1.3,2.6
		c0.3,1,0.4,1.8,0.4,2.6L363.1,41.9L363.1,41.9z"/>
	<path class="st0" d="M405.5,41.9c0,1.5-0.2,2.8-0.6,4s-0.9,2.2-1.5,3.1c-0.7,0.9-1.3,1.6-2.2,2.3c-0.9,0.7-1.6,1.2-2.6,1.5
		c-0.9,0.4-1.8,0.7-2.7,0.9c-1,0.2-1.7,0.3-2.6,0.3l13.6,11.8h-10l-13.5-11.7h-4.6v-6.5h14.8c0.9-0.1,1.5-0.2,2.2-0.5
		s1.2-0.7,1.7-1.2s0.9-1.1,1.2-1.7c0.3-0.7,0.4-1.4,0.4-2.3v-4.1c0-0.4-0.1-0.7-0.1-0.9s-0.2-0.3-0.4-0.4c-0.1-0.1-0.3-0.2-0.5-0.2
		s-0.3,0-0.5,0h-21.5v29.5h-6.5V33c0-0.5,0.1-0.9,0.3-1.3c0.2-0.4,0.4-0.8,0.7-1.1c0.3-0.3,0.7-0.6,1.1-0.7c0.4-0.2,0.9-0.3,1.3-0.3
		h24.7c1.4,0,2.7,0.3,3.6,0.8c1,0.5,1.8,1.2,2.4,2c0.7,0.8,1.1,1.6,1.3,2.6c0.3,1,0.4,1.8,0.4,2.6L405.5,41.9L405.5,41.9z"/>
	<path class="st0" d="M446.3,41.8c0,1.5-0.2,2.8-0.6,4s-0.9,2.2-1.5,3.1c-0.6,0.9-1.3,1.6-2.2,2.3c-0.9,0.7-1.7,1.2-2.6,1.5
		s-1.8,0.7-2.7,0.9c-1,0.2-1.7,0.3-2.6,0.3h-2.6v11.8H425V54h-2.6c-0.8,0-1.6-0.1-2.6-0.3s-1.8-0.5-2.7-0.9c-0.9-0.4-1.7-1-2.6-1.5
		c-0.9-0.7-1.5-1.4-2.2-2.3c-0.7-0.9-1.2-1.9-1.5-3.1c-0.4-1.2-0.6-2.5-0.6-3.9V30h6.5v12c0,0.9,0.1,1.6,0.4,2.3s0.7,1.3,1.2,1.7
		c0.5,0.5,1.1,0.9,1.7,1.2c0.7,0.3,1.4,0.4,2.3,0.4h11.8c0.6-0.1,1.2-0.2,1.9-0.4c0.7-0.2,1.2-0.4,1.8-0.8c0.6-0.4,1-1,1.3-1.6
		c0.4-0.7,0.5-1.6,0.5-2.7v-12h6.5L446.3,41.8L446.3,41.8z"/>
</g>
<g>
	<g>
		<path class="st0" d="M58.8,91.5c-11.7,0-22.7-4.6-31-12.8C19.6,70.4,15,59.5,15,47.8s4.6-22.7,12.8-31C36.1,8.5,47.1,4,58.8,4
			s22.7,4.6,31,12.8c8.3,8.3,12.8,19.3,12.8,31s-4.6,22.7-12.8,31C81.5,87,70.5,91.5,58.8,91.5z M58.8,13.1
			c-19.1,0-34.7,15.6-34.7,34.7s15.6,34.7,34.7,34.7c19.1,0,34.7-15.6,34.7-34.7C93.5,28.6,77.9,13.1,58.8,13.1z"/>
	</g>
	<path class="st0" d="M58.8,22.3c-9.1,0-17,4.7-21.6,11.9H9l-5.4,9.1h30.1h13.1h37.1C81.7,31.3,71.3,22.3,58.8,22.3z"/>
	<path class="st0" d="M114.2,52.3H83.9H65.6H33.7c2.1,11.9,12.6,21,25.1,21c9.1,0,17-4.7,21.6-11.9h28.6L114.2,52.3z"/>
</g>
</svg>
